<?xml version="1.0" encoding="UTF-8" standalone="no"?>
<!DOCTYPE svg PUBLIC "-//W3C//DTD SVG 1.1//EN" "http://www.w3.org/Graphics/SVG/1.1/DTD/svg11.dtd">
<svg width="100%" height="100%" viewBox="0 0 534 134" version="1.1" xmlns="http://www.w3.org/2000/svg" xmlns:xlink="http://www.w3.org/1999/xlink" xml:space="preserve" xmlns:serif="http://www.serif.com/" style="fill-rule:evenodd;clip-rule:evenodd;stroke-linejoin:round;stroke-miterlimit:2;">
    <g transform="matrix(1.33333,0,0,1.33333,0,0)">
        <g id="Colour---dark-mode" serif:id="Colour - dark mode">
            <g>
                <g transform="matrix(1,0,0,1,66.7387,-5.562)">
                    <g transform="matrix(58.3333,0,0,58.3333,167,76.8537)">
                        <path d="M0.04,0.2L0.04,-0.52L0.173,-0.52L0.173,-0.436C0.187,-0.465 0.207,-0.488 0.233,-0.505C0.258,-0.522 0.294,-0.531 0.339,-0.531C0.375,-0.531 0.409,-0.524 0.44,-0.51C0.47,-0.495 0.498,-0.475 0.521,-0.451C0.544,-0.426 0.563,-0.397 0.576,-0.364C0.589,-0.331 0.596,-0.295 0.596,-0.258C0.596,-0.208 0.584,-0.163 0.562,-0.122C0.539,-0.081 0.508,-0.048 0.469,-0.024C0.43,0.001 0.387,0.013 0.339,0.013C0.294,0.013 0.259,0.005 0.234,-0.012C0.209,-0.028 0.189,-0.05 0.175,-0.077L0.175,0.2L0.04,0.2ZM0.317,-0.109C0.346,-0.109 0.371,-0.116 0.393,-0.13C0.414,-0.144 0.431,-0.163 0.443,-0.186C0.455,-0.209 0.461,-0.233 0.461,-0.259C0.461,-0.286 0.455,-0.311 0.443,-0.334C0.431,-0.357 0.414,-0.375 0.393,-0.389C0.371,-0.402 0.346,-0.409 0.317,-0.409C0.288,-0.409 0.262,-0.402 0.24,-0.388C0.218,-0.374 0.201,-0.356 0.189,-0.333C0.177,-0.31 0.171,-0.285 0.171,-0.258C0.171,-0.231 0.177,-0.207 0.189,-0.184C0.201,-0.161 0.218,-0.143 0.24,-0.13C0.262,-0.116 0.288,-0.109 0.317,-0.109Z" style="fill:white;fill-rule:nonzero;"/>
                    </g>
                    <g transform="matrix(58.3333,0,0,58.3333,202.642,76.8537)">
                        <path d="M0.277,0.013C0.23,0.013 0.187,0.001 0.148,-0.024C0.109,-0.048 0.078,-0.081 0.055,-0.122C0.032,-0.163 0.02,-0.208 0.02,-0.258C0.02,-0.295 0.027,-0.331 0.04,-0.364C0.053,-0.397 0.072,-0.426 0.095,-0.451C0.118,-0.475 0.146,-0.495 0.177,-0.51C0.208,-0.524 0.241,-0.531 0.277,-0.531C0.322,-0.531 0.358,-0.523 0.383,-0.506C0.408,-0.489 0.428,-0.466 0.442,-0.438L0.442,-0.52L0.576,-0.52L0.576,-0L0.445,-0L0.445,-0.085C0.431,-0.056 0.411,-0.032 0.386,-0.014C0.36,0.004 0.324,0.013 0.277,0.013ZM0.299,-0.109C0.329,-0.109 0.355,-0.116 0.377,-0.13C0.398,-0.143 0.415,-0.161 0.427,-0.184C0.439,-0.207 0.445,-0.231 0.445,-0.258C0.445,-0.285 0.439,-0.31 0.427,-0.333C0.415,-0.356 0.398,-0.374 0.377,-0.388C0.355,-0.402 0.329,-0.409 0.299,-0.409C0.27,-0.409 0.245,-0.402 0.224,-0.389C0.202,-0.375 0.185,-0.357 0.173,-0.334C0.161,-0.311 0.155,-0.286 0.155,-0.259C0.155,-0.233 0.161,-0.209 0.173,-0.186C0.185,-0.163 0.202,-0.144 0.224,-0.13C0.245,-0.116 0.27,-0.109 0.299,-0.109Z" style="fill:white;fill-rule:nonzero;"/>
                    </g>
                    <g transform="matrix(58.3333,0,0,58.3333,238.575,76.8537)">
                        <path d="M0.04,-0L0.04,-0.52L0.173,-0.52L0.173,-0.444C0.2,-0.503 0.253,-0.532 0.332,-0.532C0.369,-0.532 0.403,-0.523 0.433,-0.506C0.463,-0.489 0.487,-0.464 0.504,-0.432C0.521,-0.4 0.53,-0.362 0.53,-0.318L0.53,-0L0.395,-0L0.395,-0.285C0.395,-0.33 0.385,-0.363 0.364,-0.384C0.343,-0.404 0.316,-0.414 0.283,-0.414C0.254,-0.414 0.229,-0.404 0.208,-0.384C0.186,-0.363 0.175,-0.33 0.175,-0.285L0.175,-0L0.04,-0Z" style="fill:white;fill-rule:nonzero;"/>
                    </g>
                    <g transform="matrix(58.3333,0,0,58.3333,271.533,76.8537)">
                        <path d="M0.441,0.2L0.441,-0.077C0.427,-0.05 0.407,-0.028 0.382,-0.012C0.357,0.005 0.322,0.013 0.277,0.013C0.23,0.013 0.187,0.001 0.148,-0.024C0.109,-0.048 0.078,-0.081 0.055,-0.122C0.032,-0.163 0.02,-0.208 0.02,-0.258C0.02,-0.295 0.027,-0.331 0.04,-0.364C0.053,-0.397 0.072,-0.426 0.095,-0.451C0.118,-0.475 0.146,-0.495 0.177,-0.51C0.208,-0.524 0.241,-0.531 0.277,-0.531C0.322,-0.531 0.358,-0.522 0.384,-0.505C0.409,-0.488 0.429,-0.465 0.443,-0.436L0.443,-0.52L0.576,-0.52L0.576,0.2L0.441,0.2ZM0.299,-0.109C0.329,-0.109 0.355,-0.116 0.377,-0.13C0.398,-0.143 0.415,-0.161 0.427,-0.184C0.439,-0.207 0.445,-0.231 0.445,-0.258C0.445,-0.285 0.439,-0.31 0.427,-0.333C0.415,-0.356 0.398,-0.374 0.377,-0.388C0.355,-0.402 0.329,-0.409 0.299,-0.409C0.27,-0.409 0.245,-0.402 0.224,-0.389C0.202,-0.375 0.185,-0.357 0.173,-0.334C0.161,-0.311 0.155,-0.286 0.155,-0.259C0.155,-0.233 0.161,-0.209 0.173,-0.186C0.185,-0.163 0.202,-0.144 0.224,-0.13C0.245,-0.116 0.27,-0.109 0.299,-0.109Z" style="fill:white;fill-rule:nonzero;"/>
                    </g>
                </g>
                <g transform="matrix(1,0,0,1,-20.2613,-5.562)">
                    <g transform="matrix(58.3333,0,0,58.3333,167,76.8537)">
                        <path d="M0.04,-0L0.04,-0.52L0.173,-0.52L0.173,-0.444C0.2,-0.503 0.253,-0.532 0.332,-0.532C0.369,-0.532 0.402,-0.524 0.431,-0.507C0.46,-0.49 0.484,-0.465 0.501,-0.434C0.518,-0.465 0.541,-0.49 0.568,-0.507C0.595,-0.524 0.631,-0.532 0.677,-0.532C0.714,-0.532 0.748,-0.523 0.778,-0.506C0.808,-0.489 0.832,-0.464 0.849,-0.432C0.866,-0.4 0.875,-0.362 0.875,-0.318L0.875,-0L0.74,-0L0.74,-0.285C0.74,-0.33 0.73,-0.363 0.711,-0.384C0.692,-0.404 0.667,-0.414 0.636,-0.414C0.605,-0.414 0.579,-0.405 0.56,-0.387C0.54,-0.369 0.53,-0.335 0.53,-0.285L0.53,-0L0.395,-0L0.395,-0.285C0.395,-0.33 0.385,-0.363 0.364,-0.384C0.343,-0.404 0.316,-0.414 0.283,-0.414C0.254,-0.414 0.229,-0.404 0.208,-0.384C0.186,-0.363 0.175,-0.33 0.175,-0.285L0.175,-0L0.04,-0Z" style="fill:rgb(238,127,0);fill-rule:nonzero;"/>
                    </g>
                    <g transform="matrix(58.3333,0,0,58.3333,220.083,76.8537)">
                        <path d="M0.04,-0L0.04,-0.73L0.175,-0.73L0.175,-0.31L0.37,-0.52L0.562,-0.52L0.317,-0.278L0.563,-0L0.384,-0L0.175,-0.247L0.175,-0L0.04,-0Z" style="fill:rgb(238,127,0);fill-rule:nonzero;"/>
                    </g>
                </g>
            </g>
            <g transform="matrix(1.18652,0,0,1.18652,-33.573,-9.32616)">
                <g transform="matrix(1.125,0,-0.353846,1,21.6525,-5.5)">
                    <path d="M80.717,23C81.7,23 82.791,23.537 83.642,24.44C84.494,25.343 85,26.5 85,27.542C85,40.333 85,76.328 85,85.73C85,87.091 84.142,88 82.86,88C80.422,88 76.376,88 73.283,88C72.3,88 71.209,87.463 70.358,86.56C69.506,85.657 69,84.5 69,83.458C69,70.667 69,34.672 69,25.27C69,23.909 69.858,23 71.14,23C73.578,23 77.624,23 80.717,23Z"/>
                    <path d="M80.054,20.893C81.645,20.893 83.411,21.762 84.789,23.224C86.167,24.685 86.987,26.558 86.987,28.245L86.987,86.433C86.987,88.635 85.599,90.107 83.522,90.107L73.946,90.107C72.355,90.107 70.589,89.238 69.211,87.776C67.833,86.315 67.013,84.442 67.013,82.755L67.013,24.567C67.013,22.365 68.401,20.893 70.478,20.893L80.054,20.893ZM80.717,23L71.14,23C69.858,23 69,23.909 69,25.27L69,83.458C69,84.5 69.506,85.657 70.358,86.56C71.209,87.463 72.3,88 73.283,88L82.86,88C84.142,88 85,87.091 85,85.73L85,27.542C85,26.5 84.494,25.343 83.642,24.44C82.791,23.537 81.7,23 80.717,23Z" style="fill:rgb(238,127,0);"/>
                </g>
                <g transform="matrix(1.125,0,-0.353846,1,1.51346,-5.5)">
                    <path d="M80.717,23C81.7,23 82.791,23.537 83.642,24.44C84.494,25.343 85,26.5 85,27.542C85,40.333 85,76.328 85,85.73C85,87.091 84.142,88 82.86,88C80.422,88 76.376,88 73.283,88C72.3,88 71.209,87.463 70.358,86.56C69.506,85.657 69,84.5 69,83.458C69,70.667 69,34.672 69,25.27C69,23.909 69.858,23 71.14,23C73.578,23 77.624,23 80.717,23Z"/>
                    <path d="M80.054,20.893C81.645,20.893 83.411,21.762 84.789,23.224C86.167,24.685 86.987,26.558 86.987,28.245L86.987,86.433C86.987,88.635 85.599,90.107 83.522,90.107L73.946,90.107C72.355,90.107 70.589,89.238 69.211,87.776C67.833,86.315 67.013,84.442 67.013,82.755L67.013,24.567C67.013,22.365 68.401,20.893 70.478,20.893L80.054,20.893ZM80.717,23L71.14,23C69.858,23 69,23.909 69,25.27L69,83.458C69,84.5 69.506,85.657 70.358,86.56C71.209,87.463 72.3,88 73.283,88L82.86,88C84.142,88 85,87.091 85,85.73L85,27.542C85,26.5 84.494,25.343 83.642,24.44C82.791,23.537 81.7,23 80.717,23Z" style="fill:rgb(238,127,0);"/>
                </g>
                <g transform="matrix(1,0,0,1,-18.2161,-4.27853e-11)">
                    <path d="M131.908,82.5C130.465,82.5 129.178,81.591 128.697,80.23C126.434,73.837 120.066,55.84 118.402,51.136C118.142,50.401 118.142,49.599 118.402,48.864C120.066,44.16 126.434,26.163 128.697,19.77C129.178,18.409 130.465,17.5 131.908,17.5L142.681,17.5C143.787,17.5 144.825,18.037 145.463,18.94C146.101,19.843 146.262,21 145.893,22.043C143.193,29.671 137.898,44.636 136.402,48.864C136.142,49.599 136.142,50.401 136.402,51.136C137.898,55.364 143.193,70.329 145.893,77.957C146.262,79 146.101,80.157 145.463,81.06C144.825,81.963 143.787,82.5 142.681,82.5C139.202,82.5 134.651,82.5 131.908,82.5Z"/>
                    <path d="M131.908,84.607C129.572,84.607 127.49,83.135 126.71,80.933L116.416,51.839C115.995,50.649 115.995,49.351 116.416,48.161L126.71,19.067C127.49,16.865 129.572,15.393 131.908,15.393L142.681,15.393C144.472,15.393 146.15,16.262 147.183,17.724C148.217,19.185 148.476,21.058 147.879,22.745L138.388,49.567C138.289,49.847 138.289,50.153 138.388,50.433L147.879,77.255C148.476,78.942 148.217,80.815 147.183,82.276C146.15,83.738 144.472,84.607 142.681,84.607L131.908,84.607ZM131.908,82.5L142.681,82.5C143.787,82.5 144.825,81.963 145.463,81.06C146.101,80.157 146.262,79 145.893,77.957L136.402,51.136C136.142,50.401 136.142,49.599 136.402,48.864L145.893,22.043C146.262,21 146.101,19.843 145.463,18.94C144.825,18.037 143.787,17.5 142.681,17.5L131.908,17.5C130.465,17.5 129.178,18.409 128.697,19.77L118.402,48.864C118.142,49.599 118.142,50.401 118.402,51.136L128.697,80.23C129.178,81.591 130.465,82.5 131.908,82.5Z" style="fill:rgb(238,127,0);"/>
                </g>
                <g transform="matrix(1.125,0,-0.375672,1.06168,62.4689,-6.91865)">
                    <path d="M85,53.362C85,54.643 84.142,55.5 82.86,55.5C80.422,55.5 76.376,55.5 73.283,55.5C72.3,55.5 71.209,54.994 70.358,54.144C69.506,53.293 69,52.203 69,51.221C69,44.185 69,30.424 69,25.138C69,23.857 69.858,23 71.14,23C73.578,23 77.624,23 80.717,23C81.7,23 82.791,23.506 83.642,24.356C84.494,25.207 85,26.297 85,27.279C85,34.315 85,48.076 85,53.362Z"/>
                    <path d="M86.987,54.024C86.987,56.098 85.599,57.485 83.522,57.485L73.946,57.485C72.355,57.485 70.589,56.666 69.211,55.289C67.833,53.912 67.013,52.149 67.013,50.559L67.013,24.476C67.013,22.402 68.401,21.015 70.478,21.015L80.054,21.015C81.645,21.015 83.411,21.834 84.789,23.211C86.167,24.588 86.987,26.351 86.987,27.941L86.987,54.024ZM85,53.362L85,27.279C85,26.297 84.494,25.207 83.642,24.356C82.791,23.506 81.7,23 80.717,23L71.14,23C69.858,23 69,23.857 69,25.138L69,51.221C69,52.203 69.506,53.293 70.358,54.144C71.209,54.994 72.3,55.5 73.283,55.5L82.86,55.5C84.142,55.5 85,54.643 85,53.362Z" style="fill:rgb(238,127,0);"/>
                </g>
            </g>
        </g>
    </g>
</svg>
